<?xml version="1.0" encoding="UTF-8"?>
<!DOCTYPE svg PUBLIC "-//W3C//DTD SVG 1.1//EN" "http://www.w3.org/Graphics/SVG/1.1/DTD/svg11.dtd">
<!-- Creator: CorelDRAW 2021 (64-Bit) -->
<svg xmlns="http://www.w3.org/2000/svg" xml:space="preserve" width="68.5694mm" height="67.0111mm" version="1.1" style="shape-rendering:geometricPrecision; text-rendering:geometricPrecision; image-rendering:optimizeQuality; fill-rule:evenodd; clip-rule:evenodd"
viewBox="0 0 7346.02 7179.08"
 xmlns:xlink="http://www.w3.org/1999/xlink"
 xmlns:xodm="http://www.corel.com/coreldraw/odm/2003">
 <defs>
  <style type="text/css">
   <![CDATA[
    .fil0 {fill:#FEFEFE}
   ]]>
  </style>
 </defs>
 <g id="Слой_x0020_1">
  <metadata id="CorelCorpID_0Corel-Layer"/>
  <path class="fil0" d="M4620.28 7166.96c52.21,14.73 109.39,16.03 171.56,3.89 1699.65,-542.99 2767.85,-2234.42 2518.07,-4009.85 -253.95,-1804.98 -1793.34,-3150.62 -3616.09,-3160.94 -1822.74,-10.32 -3377.26,1317.8 -3651.64,3119.8 -268.85,1765.77 771.22,3462.99 2453.29,4031.66 58.13,-1.47 92.89,-28.98 104.27,-82.53l-2.29 -3084.15c-284.61,-524.18 -170.94,-1175.31 274.44,-1572.05 445.38,-396.73 1105.28,-434.68 1593.19,-91.61 487.92,343.08 675.47,976.89 452.82,1530.24 -222.65,553.34 -796.93,880.61 -1386.49,790.12 -99.78,-15.35 -183.13,-28.17 -250.04,-38.46 -198.33,1277.62 318.54,2188.09 1338.9,2563.88zm-2504.92 -3073.94l0 2483.2c-1364.42,-738.36 -2030.39,-2327.34 -1600.14,-3817.87 430.26,-1490.54 1840.56,-2480.2 3388.57,-2377.86 1548,102.33 2815.77,1269.02 3046.07,2803.21 230.3,1534.2 -639.04,3021.69 -2088.78,3574.02 -773.47,-302.04 -1153.26,-841.77 -1139.4,-1619.19 782.64,2.52 1473.52,-510.52 1697.4,-1260.46 223.88,-749.93 -72.7,-1557.75 -728.64,-1984.69 -655.94,-426.92 -1514.66,-371.05 -2109.75,137.27 -595.09,508.32 -784.49,1347.76 -465.33,2062.37z"/>
 </g>
</svg>
