<?xml version="1.0" encoding="UTF-8"?>
<!DOCTYPE svg PUBLIC "-//W3C//DTD SVG 1.1//EN" "http://www.w3.org/Graphics/SVG/1.1/DTD/svg11.dtd">
<!-- Creator: CorelDRAW 2021 (64-Bit) -->
<svg xmlns="http://www.w3.org/2000/svg" xml:space="preserve" width="68.5694mm" height="67.0111mm" version="1.1" style="shape-rendering:geometricPrecision; text-rendering:geometricPrecision; image-rendering:optimizeQuality; fill-rule:evenodd; clip-rule:evenodd"
viewBox="0 0 7578.82 7406.58"
 xmlns:xlink="http://www.w3.org/1999/xlink"
 xmlns:xodm="http://www.corel.com/coreldraw/odm/2003">
 <defs>
  <style type="text/css">
   <![CDATA[
    .fil0 {fill:#24697A}
   ]]>
  </style>
 </defs>
 <g id="Слой_x0020_1">
  <metadata id="CorelCorpID_0Corel-Layer"/>
  <path class="fil0" d="M4766.7 7394.08c53.86,15.2 112.86,16.53 177,4.01 1753.51,-560.2 2855.56,-2305.23 2597.87,-4136.92 -261.99,-1862.18 -1850.17,-3250.47 -3730.69,-3261.11 -1880.51,-10.64 -3484.29,1359.56 -3767.36,3218.67 -277.37,1821.73 795.66,3572.73 2531.04,4159.42 59.97,-1.51 95.84,-29.9 107.58,-85.15l-2.37 -3181.88c-293.63,-540.79 -176.36,-1212.56 283.14,-1621.87 459.5,-409.31 1140.3,-448.46 1643.68,-94.51 503.39,353.95 696.88,1007.85 467.17,1578.73 -229.71,570.88 -822.18,908.52 -1430.43,815.16 -102.95,-15.84 -188.94,-29.06 -257.96,-39.68 -204.62,1318.11 328.63,2257.43 1381.33,2645.13zm-2584.3 -3171.35l0 2561.89c-1407.66,-761.76 -2094.73,-2401.09 -1650.85,-3938.85 443.89,-1537.77 1898.89,-2558.79 3495.96,-2453.22 1597.06,105.58 2905,1309.23 3142.6,2892.05 237.6,1582.82 -659.29,3117.45 -2154.97,3687.28 -797.98,-311.61 -1189.81,-868.45 -1175.51,-1670.5 807.44,2.6 1520.22,-526.7 1751.19,-1300.4 230.97,-773.69 -75,-1607.12 -751.73,-2047.58 -676.73,-440.45 -1562.66,-382.81 -2176.61,141.62 -613.95,524.43 -809.35,1390.47 -480.08,2127.72z"/>
 </g>
</svg>
